<svg id="Layer_1" data-name="Layer 1" xmlns="http://www.w3.org/2000/svg" viewBox="0 0 753.08 137.02"><defs><style>.cls-1{fill:#3b3f34;}</style></defs><title>tree-house-spa-logo-new</title><path class="cls-1" d="M25.32,27.84A23.36,23.36,0,0,1,35,18a31.84,31.84,0,0,1,13-3.5,62.54,62.54,0,0,1,15.26,1.11q8.1,1.53,16.12,3.67t15.69,4.26a94.8,94.8,0,0,0,14.24,2.9,31.07,31.07,0,0,0,11.43-.51A11.65,11.65,0,0,0,128.16,20a4.13,4.13,0,0,1,2.3-2.39,2.71,2.71,0,0,1,2.22.26A3.17,3.17,0,0,1,134,19.91a6,6,0,0,1-.17,3.15Q130.37,34,124.41,38.41a24.16,24.16,0,0,1-13.65,4.78,15.05,15.05,0,0,0-10.06,5.2A48.1,48.1,0,0,0,93,60.33a143.94,143.94,0,0,0-6.4,16.29q-3,9-6.14,18.33t-6.74,18.17A86.27,86.27,0,0,1,65.48,129a41.47,41.47,0,0,1-10.74,11.17,24.52,24.52,0,0,1-14.25,4.18q-7.85,0-12.79-2.13A23.32,23.32,0,0,1,19.86,137a18.34,18.34,0,0,1-4.1-6.39,22.13,22.13,0,0,1-1.36-5.72,11.34,11.34,0,0,1,2.73-8.52,11.14,11.14,0,0,1,7.76-3.76,11.11,11.11,0,0,1,12,10.41,10.86,10.86,0,0,1-2.73,8.18,5.51,5.51,0,0,1-1.36,1.28l-1.54.94a10.56,10.56,0,0,0,5.63,1q5.46-.69,9.3-6.4a79.45,79.45,0,0,0,7.33-14.33q3.49-8.61,7.08-19.1A200.74,200.74,0,0,1,69,74,109.38,109.38,0,0,1,80.23,55.13a50.53,50.53,0,0,1,15.87-14A114.09,114.09,0,0,1,81.51,36.2Q74.1,33.13,67,30.31a122.67,122.67,0,0,0-13.48-4.52A27.39,27.39,0,0,0,42,24.94a10.12,10.12,0,0,1,1.53,1.19,9.73,9.73,0,0,1,2.73,7.76,10.4,10.4,0,0,1-3.75,7.42A11.08,11.08,0,0,1,34.44,44a10.85,10.85,0,0,1-7.76-3.67,9.79,9.79,0,0,1-2.81-6A9.41,9.41,0,0,1,25.32,27.84Z" transform="translate(-14.33 -12.99)"/><path class="cls-1" d="M96.44,90.43a79,79,0,0,0,5.11-7.25c1.37-2.21,2.5-4.12,3.41-5.71a7.06,7.06,0,0,1-3.32-4.26c-.51-1.82,0-4,1.62-6.66a12.71,12.71,0,0,1,4.43-4.94,5.9,5.9,0,0,1,4.52-1,4,4,0,0,1,2.73,3c.51,1.65.26,4-.77,7.08a18.74,18.74,0,0,0,4.69.08,11.44,11.44,0,0,0,3.33-1.11,2.94,2.94,0,0,1,1.88-.08,6.26,6.26,0,0,1,2.21.94,3.23,3.23,0,0,1,1.37,1.79,3.34,3.34,0,0,1-.34,2.47,58.64,58.64,0,0,0-3.67,7.85,90.92,90.92,0,0,0-3.24,9.63,51.46,51.46,0,0,0-1.62,8.1c-.23,2.28.17,3.42,1.19,3.42a6.73,6.73,0,0,0,3.58-1.37A35.14,35.14,0,0,0,127.82,99q2.2-2,4.43-4.35c1.48-1.53,2.9-2.93,4.27-4.18A9.43,9.43,0,0,1,139.93,88a2.66,2.66,0,0,1,2.3,0,1.75,1.75,0,0,1,.68,1.71,5.28,5.28,0,0,1-1.28,2.73A76.6,76.6,0,0,1,134.3,101a89.51,89.51,0,0,1-7.59,6.73,29.18,29.18,0,0,1-8.61,4.86,9.77,9.77,0,0,1-4.95.43,8.32,8.32,0,0,1-4.35-2,8.53,8.53,0,0,1-2.47-4.6A14.58,14.58,0,0,1,107,99a69.31,69.31,0,0,1,2.9-7.25q1.71-3.66,3.24-6.74T115.54,80c.57-1.25.62-1.82.17-1.71a14,14,0,0,1-5.63.51c-1,1.94-2.3,4.21-3.84,6.83a52.49,52.49,0,0,1-4.69,6.82,9.35,9.35,0,0,1-3.32,3,2.16,2.16,0,0,1-2.22,0,2.43,2.43,0,0,1-.77-2A4.91,4.91,0,0,1,96.44,90.43Z" transform="translate(-14.33 -12.99)"/><path class="cls-1" d="M175.06,90.43A7.72,7.72,0,0,1,178,88.3a4.08,4.08,0,0,1,2.47-.34,1.37,1.37,0,0,1,1,1.36,5.81,5.81,0,0,1-1.28,3.16q-1.55,2-4.78,5.63a73.32,73.32,0,0,1-7.42,7.08,44.94,44.94,0,0,1-9,5.88,17,17,0,0,1-9.46,1.88,12.6,12.6,0,0,1-8.45-4,18.4,18.4,0,0,1-4.26-8.44,29.1,29.1,0,0,1-.26-10.66,27.83,27.83,0,0,1,3.76-10.49A24.6,24.6,0,0,1,148,71.41a21,21,0,0,1,11.68-3.15q6.14,0,8.78,4.09a12.4,12.4,0,0,1,1.88,9,16.14,16.14,0,0,1-4.86,9q-4.09,4.09-11.43,4.09a11.42,11.42,0,0,1-2.13-.17,8.78,8.78,0,0,1-1.79-.51,11.33,11.33,0,0,1-1.71-.85,9,9,0,0,0,0,3.5,9.2,9.2,0,0,0,1.28,3.24,7.64,7.64,0,0,0,2.48,2.38,6.66,6.66,0,0,0,3.58.94,12.88,12.88,0,0,0,5.37-1.19,26.92,26.92,0,0,0,5.12-3.07A47.69,47.69,0,0,0,171,94.53ZM161.93,75.08a4.13,4.13,0,0,0-4.61-.51,11.6,11.6,0,0,0-3.92,3.58,26.14,26.14,0,0,0-2.9,5.29,17.32,17.32,0,0,0-1.36,4.6,7,7,0,0,0,5.71-.42A16.56,16.56,0,0,0,160,83.78a13.4,13.4,0,0,0,2.9-4.86A3.27,3.27,0,0,0,161.93,75.08Z" transform="translate(-14.33 -12.99)"/><path class="cls-1" d="M213.6,90.43a7.72,7.72,0,0,1,2.9-2.13A4.11,4.11,0,0,1,219,88a1.37,1.37,0,0,1,1,1.36,5.73,5.73,0,0,1-1.28,3.16c-1,1.36-2.62,3.24-4.77,5.63a75.5,75.5,0,0,1-7.42,7.08,44.94,44.94,0,0,1-9,5.88A17,17,0,0,1,188,113a12.57,12.57,0,0,1-8.44-4,18.21,18.21,0,0,1-4.26-8.44,28.88,28.88,0,0,1-.26-10.66,28,28,0,0,1,3.75-10.49,24.6,24.6,0,0,1,7.76-7.94,21,21,0,0,1,11.68-3.15c4.1,0,7,1.36,8.79,4.09a12.39,12.39,0,0,1,1.87,9,16.14,16.14,0,0,1-4.86,9c-2.72,2.73-6.54,4.09-11.42,4.09a11.53,11.53,0,0,1-2.14-.17,9,9,0,0,1-1.79-.51,11.23,11.23,0,0,1-1.7-.85,9.34,9.34,0,0,0,1.28,6.74,7.6,7.6,0,0,0,2.47,2.38,6.69,6.69,0,0,0,3.58.94,12.85,12.85,0,0,0,5.37-1.19,26.62,26.62,0,0,0,5.12-3.07,46.56,46.56,0,0,0,4.69-4.09ZM200.47,75.08a4.11,4.11,0,0,0-4.6-.51,11.72,11.72,0,0,0-3.93,3.58,27.16,27.16,0,0,0-2.9,5.29,17.71,17.71,0,0,0-1.36,4.6,7,7,0,0,0,5.71-.42,16.45,16.45,0,0,0,5.12-3.84,13.26,13.26,0,0,0,2.9-4.86A3.25,3.25,0,0,0,200.47,75.08Z" transform="translate(-14.33 -12.99)"/><path class="cls-1" d="M370,120.11a11.17,11.17,0,0,1,8.36,2.39,10.06,10.06,0,0,1,4.09,7.5,15,15,0,0,1-1.19,6.48,20.58,20.58,0,0,1-8.7,8.79,37.67,37.67,0,0,1-13,4.34,37.29,37.29,0,0,1-14-.59A24.16,24.16,0,0,1,334,143a28.06,28.06,0,0,1-5.8-8.52,42.62,42.62,0,0,1-3.16-10.83,70.05,70.05,0,0,1-.77-12.63,83.3,83.3,0,0,1,1.54-13.73l-22,.86q-3.24,9.38-6.91,17.73a81.42,81.42,0,0,1-8.19,14.67,39.55,39.55,0,0,1-10.15,10.07,22.52,22.52,0,0,1-12.79,3.75q-8.87,0-14.75-3a21.75,21.75,0,0,1-8.7-7.33,16,16,0,0,1-2.73-9.13,14,14,0,0,1,3-8.52,11.12,11.12,0,0,1,7.76-3.76A11.24,11.24,0,0,1,262.3,123a11.17,11.17,0,0,1-2.82,8.18,5.51,5.51,0,0,1-1.36,1.28,7.24,7.24,0,0,0-1.2.94,8.78,8.78,0,0,0,5.29,1,9.67,9.67,0,0,0,5.46-2.73,30.53,30.53,0,0,0,4.95-6.31,64.87,64.87,0,0,0,4.52-9.21q2.13-5.3,4.34-11.43A30,30,0,0,1,270,101.09a22.37,22.37,0,0,1-9.29-9.63,23.68,23.68,0,0,1-2.82-10.92,35.25,35.25,0,0,1,2-11.85,56.69,56.69,0,0,1,6-12.2A85.23,85.23,0,0,1,275,44.64a98,98,0,0,1,25.59-19.7,82.08,82.08,0,0,1,20.55-8.27,54.12,54.12,0,0,1,19.7-1.28,4.58,4.58,0,0,1,2.56.68,2.56,2.56,0,0,1,1.19,1.79,3,3,0,0,1-.6,2.22,5.33,5.33,0,0,1-2.81,1.79q-6.14,2-10.92,8.44a75.3,75.3,0,0,0-8.61,15.35,210.66,210.66,0,0,0-7.25,19.79q-3.4,10.83-6.82,21.74l20.13,1.88a133.22,133.22,0,0,1,8.78-24.22,122.88,122.88,0,0,1,13.39-22.17,96.36,96.36,0,0,1,17-17.4,51.5,51.5,0,0,1,19.53-9.89A8.27,8.27,0,0,1,390,15c.86.17,1.37.51,1.54,1a2,2,0,0,1-.51,1.8,5.63,5.63,0,0,1-2.48,1.7,36.67,36.67,0,0,0-10.23,8.1,90,90,0,0,0-9.89,13.14,138,138,0,0,0-8.87,16.62,191.39,191.39,0,0,0-7.25,18.51,182.18,182.18,0,0,0-5.2,18.85,109.49,109.49,0,0,0-2.48,17.56,57.22,57.22,0,0,0,.94,14.67,20.65,20.65,0,0,0,4.95,10.24,11.13,11.13,0,0,0,7.16,3.75,20.35,20.35,0,0,0,7.51-.34,11.16,11.16,0,0,1-2.65-16.21A11.19,11.19,0,0,1,370,120.11ZM284.38,96.23q3.42-9.89,7.17-20.64a208.35,208.35,0,0,1,8.53-20.8A132.75,132.75,0,0,1,310.73,36.2a56,56,0,0,1,13.56-14,48.12,48.12,0,0,0-14.75,5.54,68,68,0,0,0-14.07,10.66,62.54,62.54,0,0,0-11.6,14.76,53.39,53.39,0,0,0-6,15.69,36.35,36.35,0,0,0,0,14.84,25.52,25.52,0,0,0,6.31,12.19A.5.5,0,0,0,284.38,96.23Z" transform="translate(-14.33 -12.99)"/><path class="cls-1" d="M387.57,67.92a11.08,11.08,0,0,1,6.48,1.79,11,11,0,0,1,3.84,4.86,15.93,15.93,0,0,1,1,7.16,30.86,30.86,0,0,1-2,8.7l-1,2.39c2.62.68,5.06-.11,7.34-2.39A9.86,9.86,0,0,1,406.58,88a2.49,2.49,0,0,1,2.22,0,1.93,1.93,0,0,1,.77,1.71,4.65,4.65,0,0,1-1.2,2.73,14.93,14.93,0,0,1-6.48,4.94,14,14,0,0,1-8.35.86,34.19,34.19,0,0,1-8.36,10.57,17,17,0,0,1-11.09,4.1,13.58,13.58,0,0,1-7-1.8,13.18,13.18,0,0,1-4.86-4.86A17.78,17.78,0,0,1,360,99.13a22.44,22.44,0,0,1,.94-8.7,35.46,35.46,0,0,1,3.92-8.7,32.31,32.31,0,0,1,6.06-7.16,28.59,28.59,0,0,1,7.67-4.86A22.58,22.58,0,0,1,387.57,67.92Zm-1.2,26.26a7.59,7.59,0,0,1-1.7-4.43,9.74,9.74,0,0,1,3.75-8.44,5.7,5.7,0,0,1,4.43-1.11q.18-5.11-3.41-6.14c-1.93-.45-4.23.71-6.9,3.5s-5.15,7.07-7.42,12.87a39.44,39.44,0,0,0-2.56,10.66q-.35,4.69,2.05,5.54,3.4,1.2,6.9-2.21a33.54,33.54,0,0,0,6.23-8.7Z" transform="translate(-14.33 -12.99)"/><path class="cls-1" d="M406.33,82.93a56.69,56.69,0,0,1,2.9-6.23c1-1.87,1.93-3.44,2.73-4.69.9-1.47,1.81-2.84,2.72-4.09h12.11l-2.38,4.43q-2.22,4.09-4.1,8.19c-1,2-2.1,4.43-3.24,7.16s-2.1,5.35-2.9,7.85a24.57,24.57,0,0,0-1.28,6.31c-.06,1.71.54,2.56,1.79,2.56s2.45-.91,3.93-2.73a52.24,52.24,0,0,0,4.6-6.91q2.39-4.17,4.69-9t4.18-9.12l1.45-3.76c.4-1,.77-1.93,1.11-2.72a13.26,13.26,0,0,0,1-2.22H447.6q-1.53,5.11-3.07,9.55c-.91,2.62-1.79,5.2-2.64,7.76s-1.51,4.52-2,5.88-.92,2.71-1.37,4a35,35,0,0,0-1,3.41,18.43,18.43,0,0,0-.43,2.39c-.06.63.14.94.6.94a6.84,6.84,0,0,0,3.33-1,27.48,27.48,0,0,0,3.83-2.73c1.37-1.14,2.73-2.39,4.1-3.76s2.72-2.67,4.09-3.92a11.3,11.3,0,0,1,3.5-2.39,2.47,2.47,0,0,1,2.21,0,1.78,1.78,0,0,1,.69,1.71,5.36,5.36,0,0,1-1.28,2.73,72.65,72.65,0,0,1-9,10.23,54.56,54.56,0,0,1-9.21,7.08A19.62,19.62,0,0,1,429.52,113q-4.44,0-5.88-2.39a9.47,9.47,0,0,1-1.11-6,31.75,31.75,0,0,1-6,6,10,10,0,0,1-6,2.31c-3.3,0-5.71-.83-7.25-2.48a10.24,10.24,0,0,1-2.56-6.56,29.33,29.33,0,0,1,1.28-9.56A80.26,80.26,0,0,1,406.33,82.93Z" transform="translate(-14.33 -12.99)"/><path class="cls-1" d="M460.56,80.54a8.45,8.45,0,0,1-.25-6.4,21.17,21.17,0,0,1,3.41-6.73A16.31,16.31,0,0,1,469,62.72a5.57,5.57,0,0,1,5.55-.26,3.43,3.43,0,0,1,2,4.09A17.25,17.25,0,0,1,474,72.18a52.33,52.33,0,0,1-5.46,7,33.25,33.25,0,0,1,3.67,2.47,22.65,22.65,0,0,1,4,4A26.42,26.42,0,0,1,479.49,91a15.19,15.19,0,0,1,1.37,6.39,7,7,0,0,1-.09,1.2,5.84,5.84,0,0,0-.08,1c1.81-1.47,3.61-3,5.37-4.69s3.38-3.15,4.86-4.52a11.41,11.41,0,0,1,3.5-2.39,2.47,2.47,0,0,1,2.21,0,1.76,1.76,0,0,1,.69,1.71A5.36,5.36,0,0,1,496,92.48q-4.28,4.6-8.7,8.7a87.53,87.53,0,0,1-8.78,6.65,33.86,33.86,0,0,1-9.81,4.6,26.75,26.75,0,0,1-6.82.52,9.83,9.83,0,0,1-6-2.39,9.07,9.07,0,0,1-2.82-4.52,6.52,6.52,0,0,1,.51-4.61,5.34,5.34,0,0,1,4.18-2.64q3.59-.51,4.18.85a5.4,5.4,0,0,1,.17,3.33c-.28,1.31-.51,2.56-.68,3.75s.43,1.85,1.79,2a3.24,3.24,0,0,0,3.33-2,12.12,12.12,0,0,0,1.11-5.54,32.32,32.32,0,0,0-1-7.59,35.41,35.41,0,0,0-3.07-8.1l-5.46,7a9.35,9.35,0,0,1-3.32,3,2.32,2.32,0,0,1-2.3,0,2.13,2.13,0,0,1-.77-2,5.46,5.46,0,0,1,1.28-3Z" transform="translate(-14.33 -12.99)"/><path class="cls-1" d="M529.46,90.43a7.72,7.72,0,0,1,2.9-2.13,4.11,4.11,0,0,1,2.48-.34,1.37,1.37,0,0,1,1,1.36,5.81,5.81,0,0,1-1.28,3.16c-1,1.36-2.62,3.24-4.78,5.63a74.25,74.25,0,0,1-7.41,7.08,44.94,44.94,0,0,1-9,5.88,17,17,0,0,1-9.47,1.88,12.55,12.55,0,0,1-8.44-4,18.31,18.31,0,0,1-4.27-8.44,29.11,29.11,0,0,1-.25-10.66,28,28,0,0,1,3.75-10.49,24.6,24.6,0,0,1,7.76-7.94,21,21,0,0,1,11.68-3.15c4.1,0,7,1.36,8.79,4.09a12.39,12.39,0,0,1,1.87,9,16.14,16.14,0,0,1-4.86,9q-4.1,4.09-11.42,4.09a11.53,11.53,0,0,1-2.14-.17,9,9,0,0,1-1.79-.51,10.79,10.79,0,0,1-1.7-.85,9,9,0,0,0,0,3.5,8.84,8.84,0,0,0,1.28,3.24,7.6,7.6,0,0,0,2.47,2.38,6.69,6.69,0,0,0,3.58.94,12.85,12.85,0,0,0,5.37-1.19,26.92,26.92,0,0,0,5.12-3.07,46.56,46.56,0,0,0,4.69-4.09ZM516.33,75.08a4.11,4.11,0,0,0-4.6-.51,11.72,11.72,0,0,0-3.93,3.58,26.64,26.64,0,0,0-2.9,5.29,17.71,17.71,0,0,0-1.36,4.6,7,7,0,0,0,5.71-.42,16.45,16.45,0,0,0,5.12-3.84,13.26,13.26,0,0,0,2.9-4.86A3.25,3.25,0,0,0,516.33,75.08Z" transform="translate(-14.33 -12.99)"/><path class="cls-1" d="M584.72,146.89q-10.07-4.27-15.6-11.17a35.42,35.42,0,0,1-7.25-14.67,33.78,33.78,0,0,1,.08-15.27,31,31,0,0,1,6.4-13A25.88,25.88,0,0,1,579.86,85q6.92-2.39,15.44.18a13,13,0,0,1,4.09,3.06A10.54,10.54,0,0,1,602,95.89a9.86,9.86,0,0,1-3.66,7.16,10.59,10.59,0,0,1-7.76,2.9,11.94,11.94,0,0,1-9.13-6.14,14.17,14.17,0,0,0-6.4,6.91,23.76,23.76,0,0,0-2.21,10.66,24.35,24.35,0,0,0,3.07,11.34,20.83,20.83,0,0,0,9.63,8.78,24.2,24.2,0,0,0,10.24,2.31,31.23,31.23,0,0,0,11.08-1.88A32.41,32.41,0,0,0,617,132.05a27.22,27.22,0,0,0,7.16-9.55,27.65,27.65,0,0,0,2.73-14.42A53.11,53.11,0,0,0,623.44,94,128.37,128.37,0,0,0,617,80a107.68,107.68,0,0,1-6.48-14.5A65.47,65.47,0,0,1,606.89,50a37.36,37.36,0,0,1,2.39-16.88,29.83,29.83,0,0,1,8.19-12.28,31.08,31.08,0,0,1,11.6-6.49,33.56,33.56,0,0,1,13-1.19A39.39,39.39,0,0,1,655,16.75a34.82,34.82,0,0,1,10.75,7.68A31,31,0,0,1,672,34a22.61,22.61,0,0,1,1.71,9.63A15.32,15.32,0,0,1,671,51.72a8.73,8.73,0,0,1-7.25,3.83,11.14,11.14,0,0,1-7.93-3,10.49,10.49,0,0,1-3.58-7.25,10.29,10.29,0,0,1,2.56-7.76q2.89-3.41,6.48-3.41a15.52,15.52,0,0,0-3-4.78,18.46,18.46,0,0,0-4.18-3.24,27.28,27.28,0,0,0-9-3.15,21.42,21.42,0,0,0-9,.34,16.77,16.77,0,0,0-7.33,4.09,14.8,14.8,0,0,0-4.18,8.1,20,20,0,0,0,1.11,12,125.63,125.63,0,0,0,6.31,13.9q3.84,7.34,7.76,15.52a71.83,71.83,0,0,1,5.71,17.22A52.05,52.05,0,0,1,645.7,113q-1.63,9.72-9,20.12A39.2,39.2,0,0,1,626.08,143a44.16,44.16,0,0,1-13.3,5.63,49.1,49.1,0,0,1-14.41,1.28A43,43,0,0,1,584.72,146.89Z" transform="translate(-14.33 -12.99)"/><path class="cls-1" d="M672.9,112.78a10.7,10.7,0,0,1-8.19-4.44q-1.53,4.95-3.07,9.47T658.91,126c-.79,2.45-1.48,4.49-2,6.14s-1,2.76-1.19,3.33H642.2q1-2.91,2.64-7.42t3.58-9.81q2-5.28,4-11t4.09-11.34q4.61-13.12,9.73-27.8h11.93a9.73,9.73,0,0,1-.68,2.22c-.23.68-.51,1.48-.85,2.38s-.68,2-1,3.25a38.77,38.77,0,0,1,9.56-7.42q4.94-2.65,8.87-.94a10,10,0,0,1,4.43,3.83,14.53,14.53,0,0,1,2.13,6.32A24.93,24.93,0,0,1,700,86a38.51,38.51,0,0,1-3.75,9.72,37.17,37.17,0,0,1-4.77,7.33,33.83,33.83,0,0,0,8.87-5.88q4.26-3.84,7-6.74a9.19,9.19,0,0,1,3.07-2.13,4.08,4.08,0,0,1,2.47-.34,1.35,1.35,0,0,1,1,1.36c.06.74-.42,1.79-1.44,3.16a62.7,62.7,0,0,1-5.29,5.8,59.69,59.69,0,0,1-9,7.25,53,53,0,0,1-11.59,5.8,29.42,29.42,0,0,1-13,1.62.66.66,0,0,1-.43-.09A.33.33,0,0,0,672.9,112.78Zm-2.56-19.62q-2.91,6.14-1.88,9.47a3.81,3.81,0,0,0,4.44,3q2.9-.17,5.88-3.41a31.74,31.74,0,0,0,5.37-8.53q1.36-3.06,2.48-6.14a40.28,40.28,0,0,0,1.62-5.63,18.06,18.06,0,0,0,.42-4.34c-.06-1.2-.37-1.91-.93-2.14a5,5,0,0,0-4.35.86,23.48,23.48,0,0,0-4.95,4.26,48.79,48.79,0,0,0-4.69,6.14A35.49,35.49,0,0,0,670.34,93.16Z" transform="translate(-14.33 -12.99)"/><path class="cls-1" d="M733.27,66.9A10.35,10.35,0,0,1,741.8,72l.6-1.79a5.27,5.27,0,0,1,.59-1.28l.51-1h12.28q-1.53,5.11-3.07,9.55c-.91,2.62-1.79,5.2-2.64,7.76s-1.51,4.52-2,5.88c-.91,2.73-1.74,5.21-2.47,7.42s-.77,3.33-.09,3.33a7.27,7.27,0,0,0,3.41-1,22.3,22.3,0,0,0,3.84-2.73c1.31-1.14,2.64-2.39,4-3.76s2.73-2.67,4.09-3.92A11,11,0,0,1,764.48,88a2.68,2.68,0,0,1,2.31,0,1.62,1.62,0,0,1,.59,1.71A6.08,6.08,0,0,1,766,92.48a89.85,89.85,0,0,1-9,10.23,56,56,0,0,1-9.13,7.08A19.4,19.4,0,0,1,737.36,113q-4.61,0-5.88-2.65a11.52,11.52,0,0,1-.77-6.56,37.16,37.16,0,0,1-9.55,7.59q-4.95,2.64-8.87.93a9.87,9.87,0,0,1-4.43-3.83,14,14,0,0,1-2.05-6.4,26.62,26.62,0,0,1,.68-8.27,43.24,43.24,0,0,1,3.59-9.64A45.26,45.26,0,0,1,714.85,77a34.78,34.78,0,0,1,5.89-5.71,24.7,24.7,0,0,1,6.39-3.58A13.11,13.11,0,0,1,733.27,66.9Zm2.9,19.61q2.9-6,1.88-9.3t-4.78-3.15c-1.93.23-3.84,1.42-5.71,3.58a35.64,35.64,0,0,0-5.2,8.36c-.92,2-1.74,4.09-2.48,6.14a48,48,0,0,0-1.7,5.63,16.09,16.09,0,0,0-.52,4.26c.06,1.14.43,1.82,1.11,2q1.88.86,4.35-.69A21.77,21.77,0,0,0,728,99.13,52.83,52.83,0,0,0,732.59,93,46.51,46.51,0,0,0,736.17,86.51Z" transform="translate(-14.33 -12.99)"/></svg>